<?xml version="1.0" encoding="UTF-8" standalone="no"?>
<svg
   xmlns:dc="http://purl.org/dc/elements/1.1/"
   xmlns:cc="http://creativecommons.org/ns#"
   xmlns:rdf="http://www.w3.org/1999/02/22-rdf-syntax-ns#"
   xmlns:svg="http://www.w3.org/2000/svg"
   xmlns="http://www.w3.org/2000/svg"
   xmlns:sodipodi="http://sodipodi.sourceforge.net/DTD/sodipodi-0.dtd"
   xmlns:inkscape="http://www.inkscape.org/namespaces/inkscape"
   width="32px"
   height="32px"
   viewBox="0 0 32 32"
   version="1.1"
   id="svg374"
   sodipodi:docname="icon.svg"
   inkscape:version="1.0.2 (e86c870879, 2021-01-15)">
  <metadata
     id="metadata380">
    <rdf:RDF>
      <cc:Work
         rdf:about="">
        <dc:format>image/svg+xml</dc:format>
        <dc:type
           rdf:resource="http://purl.org/dc/dcmitype/StillImage" />
        <dc:title>folder_type_audio_opened</dc:title>
      </cc:Work>
    </rdf:RDF>
  </metadata>
  <defs
     id="defs378" />
  <sodipodi:namedview
     pagecolor="#ffffff"
     bordercolor="#666666"
     borderopacity="1"
     objecttolerance="10"
     gridtolerance="10"
     guidetolerance="10"
     inkscape:pageopacity="0"
     inkscape:pageshadow="2"
     inkscape:window-width="1920"
     inkscape:window-height="989"
     id="namedview376"
     showgrid="false"
     inkscape:snap-grids="true"
     inkscape:zoom="2.7857592"
     inkscape:cx="35.882263"
     inkscape:cy="-3.1142548"
     inkscape:window-x="0"
     inkscape:window-y="0"
     inkscape:window-maximized="1"
     inkscape:current-layer="svg374" />
  <title
     id="title366">folder_type_audio_opened</title>
  <g
     id="g589"
     transform="matrix(0.08583089,0,0,0.08583089,0.74635865,0.83083663)">
    <g
       id="XMLID_982_">
	<path
   id="XMLID_983_"
   style="fill:#00d7df"
   d="M 360,23.333 H 200 l -20,10 -20,-10 H 0 v 290 h 137.773 c 8.888,13.992 24.515,23.333 42.227,23.333 v 0 c 17.712,0 33.339,-9.342 42.227,-23.333 H 360 Z" />

	<path
   id="XMLID_984_"
   style="fill:#00969b"
   d="m 200,23.333 -18.75,9.375 v 303.917 c 17.193,-0.43 32.299,-9.632 40.977,-23.292 H 360 v -290 z" />

	<polygon
   id="XMLID_985_"
   style="fill:#ffeb99"
   points="40,273.333 40,63.333 150.557,63.333 180,78.055 209.443,63.333 320,63.333 320,273.333 " />

	<polygon
   id="XMLID_986_"
   style="fill:#ffe477"
   points="181.25,273.333 320,273.333 320,63.333 209.443,63.333 181.25,77.43 " />

	<rect
   id="XMLID_37_"
   x="65"
   y="103.333"
   style="fill:#ffda44"
   width="80"
   height="20" />

	<rect
   id="XMLID_36_"
   x="65"
   y="158.33299"
   style="fill:#ffda44"
   width="80"
   height="20" />

	<rect
   id="XMLID_35_"
   x="65"
   y="213.33299"
   style="fill:#ffda44"
   width="80"
   height="20" />

	<rect
   id="XMLID_34_"
   x="215"
   y="103.333"
   style="fill:#ffcd00"
   width="80"
   height="20" />

	<rect
   id="XMLID_33_"
   x="215"
   y="158.33299"
   style="fill:#ffcd00"
   width="80"
   height="20" />

	<rect
   id="XMLID_32_"
   x="215"
   y="213.33299"
   style="fill:#ffcd00"
   width="80"
   height="20" />

	<polygon
   id="XMLID_3_"
   style="fill:#00969b"
   points="298.148,150 274.074,140 250,150 250,60 298.148,60 " />

</g>
    <g
       id="g525">
</g>
    <g
       id="g527">
</g>
    <g
       id="g529">
</g>
    <g
       id="g531">
</g>
    <g
       id="g533">
</g>
    <g
       id="g535">
</g>
    <g
       id="g537">
</g>
    <g
       id="g539">
</g>
    <g
       id="g541">
</g>
    <g
       id="g543">
</g>
    <g
       id="g545">
</g>
    <g
       id="g547">
</g>
    <g
       id="g549">
</g>
    <g
       id="g551">
</g>
    <g
       id="g553">
</g>
  </g>
  <path
     d="M 19.836987,9.5756131 H 15.068609 L 13.980175,11.752481 H 7.8642117 v 8.707473 H 20.925421 V 9.5756131 Z m 0,9.6922469 H 9.0563063 V 12.840915 H 19.836987 Z m 0,-7.515379 h -4.250076 l 0.518302,-1.088434 h 3.679944 v 1.088434 z"
     style="fill:#004c50;stroke-width:0.518302;fill-opacity:1"
     id="path368" />
  <polygon
     points="4.3,26.5 29.5,26.5 25.7,13.7 0.5,13.7 "
     style="fill:#004c50;fill-opacity:1"
     id="polygon370"
     transform="matrix(0.51830198,0,0,0.51830198,5.6355132,6.7249522)" />
  <path
     d="m 16.738578,13.462878 a 0.34985383,0.34985383 0 0 0 -0.221315,0.09018 l -2.954321,2.456751 a 0.45040442,0.45040442 0 0 1 -0.371104,0.127502 h -1.903723 a 0.46647178,0.46647178 0 0 0 -0.469582,0.463362 c 0,0 0,0.0041 0,0.0062 v 3.042432 a 0.46647178,0.46647178 0 0 0 0.466472,0.466472 h 1.907351 a 0.45040442,0.45040442 0 0 1 0.371104,0.127502 l 2.954321,2.456752 c 0.202656,0.168448 0.420343,0.08707 0.420343,-0.112472 v -8.92203 a 0.19229003,0.19229003 0 0 0 -0.183479,-0.202656 z m 3.798117,0.894071 -0.69608,0.697116 a 5.7173891,5.7173891 0 0 1 0,6.158982 l 0.694007,0.690378 a 6.6824674,6.6824674 0 0 0 0.0021,-7.546995 z m -1.684482,1.679816 -0.684677,0.691415 a 2.3458347,2.3458347 0 0 1 0,2.813343 l 0.684677,0.682086 a 3.3254255,3.3254255 0 0 0 0.0041,-4.186325 z"
     style="fill:#00d7df;stroke-width:0.518302;fill-opacity:1"
     id="path372" />
</svg>
